<svg fill="none" height="32" viewBox="0 0 32 32" width="32" xmlns="http://www.w3.org/2000/svg"><path d="m19 7h4v2h2v2h2v2h2v4h2v2h-2v4h-2v2h-2v2h-2v2h-4v2h-2v-2h-4v-2h-2v-2h-2v-2h-2v-4h-2v-2h2v-4h2v-2h2v-2h2v-2h4v-2h2zm-6 16h4v-4h-4zm0-6h4v-4h-4zm6 0h4v-4h-4zm0 6h4v-4h-4z" fill="#000" opacity=".25"/><path d="m15 5h2v6h-2z" fill="#000"/><path d="m27 15h2v6h-2z" fill="#000" transform="matrix(0 1 -1 0 42 -12)"/><path d="m17 15h2v2h-2z" fill="#000" transform="matrix(0 1 -1 0 32 -2)"/><path d="m15 21h2v6h-2z" fill="#000"/><path d="m11 15h2v6h-2z" fill="#000" transform="matrix(0 1 -1 0 26 4)"/><path d="m23 11h2v10h-2z" fill="#000"/><path d="m9 21h2v10h-2z" fill="#000" transform="matrix(-1 0 -0 -1 18 42)"/><path d="m21 9h2v2h-2z" fill="#000"/><path d="m9 9h2v2h-2z" fill="#000"/><path d="m21 21h2v2h-2z" fill="#000"/><path d="m11 23h2v2h-2z" fill="#000" transform="matrix(-1 0 -0 -1 22 46)"/><path d="m11 7h10v2h-10z" fill="#000"/><path d="m21 25h10v2h-10z" fill="#000" transform="matrix(-1 0 -0 -1 42 50)"/><g fill="#fff"><path d="m9 11h2v4h-2z"/><path d="m11 23h2v4h-2z" transform="matrix(0 -1 1 0 -12 34)"/><path d="m23 21h2v4h-2z" transform="matrix(-1 0 -0 -1 46 42)"/><path d="m21 9h2v4h-2z" transform="matrix(0 1 -1 0 30 -12)"/><path d="m11 9h4v2h-4z"/><path d="m9 21h4v2h-4z" transform="matrix(0 -1 1 0 -12 30)"/><path d="m21 23h4v2h-4z" transform="matrix(-1 0 -0 -1 42 46)"/><path d="m23 11h4v2h-4z" transform="matrix(0 1 -1 0 34 -12)"/><path d="m17 5h4v2h-4z"/><path d="m17 25h4v2h-4z"/><path d="m21 23h2v2h-2z"/><path d="m0 0h2v2h-2z" transform="matrix(-1 0 0 1 11 23)"/><path d="m23 21h2v2h-2z"/><path d="m0 0h2v2h-2z" transform="matrix(-1 0 0 1 9 21)"/><path d="m23 9h2v2h-2z"/><path d="m0 0h2v2h-2z" transform="matrix(-1 0 0 1 9 9)"/><path d="m21 7h2v2h-2z"/><path d="m0 0h2v2h-2z" transform="matrix(-1 0 0 1 11 7)"/><path d="m25 17h2v4h-2z"/><path d="m0 0h2v4h-2z" transform="matrix(-1 0 0 1 7 17)"/><path d="m25 11h2v4h-2z"/><path d="m0 0h2v4h-2z" transform="matrix(-1 0 0 1 7 11)"/><path d="m11 5h4v2h-4z"/><path d="m11 25h4v2h-4z"/><path d="m15 3h2v2h-2z"/><path d="m15 27h2v2h-2z"/><path d="m27 15h2v2h-2z"/><path d="m0 0h2v2h-2z" transform="matrix(-1 0 0 1 5 15)"/><path d="m0 0h2v2h-2z" transform="matrix(-1 0 0 1 13 15)"/><path d="m0 0h2v2h-2z" transform="matrix(-1 0 0 1 17 11)"/><path d="m0 0h2v2h-2z" transform="matrix(-1 0 0 1 17 13)"/><path d="m0 0h2v2h-2z" transform="matrix(-1 0 0 1 15 15)"/><path d="m0 0h2v2h-2z" transform="matrix(-1 0 0 1 17 17)"/><path d="m0 0h2v2h-2z" transform="matrix(-1 0 0 1 19 15)"/><path d="m0 0h2v2h-2z" transform="matrix(-1 0 0 1 21 15)"/><path d="m0 0h2v2h-2z" transform="matrix(-1 0 0 1 17 19)"/></g></svg>